<svg width="20" height="13" viewBox="0 0 20 13" fill="none" xmlns="http://www.w3.org/2000/svg">
<path fill-rule="evenodd" clip-rule="evenodd" d="M19.9998 1.19397C19.9998 0.53456 19.5023 0 18.8887 0H17.7776C17.164 0 16.6665 0.53456 16.6665 1.19397V11.5417C16.6665 12.2012 17.164 12.7357 17.7776 12.7357H18.8887C19.5023 12.7357 19.9998 12.2012 19.9998 11.5417V1.19397ZM12.256 2.54714H13.3671C13.9807 2.54714 14.4782 3.09453 14.4782 3.76977V11.5131C14.4782 12.1883 13.9807 12.7357 13.3671 12.7357H12.256C11.6424 12.7357 11.1449 12.1883 11.1449 11.5131V3.76977C11.1449 3.09453 11.6424 2.54714 12.256 2.54714ZM7.74379 5.30654H6.63269C6.01905 5.30654 5.52159 5.8609 5.52159 6.54473V11.4975C5.52159 12.1813 6.01905 12.7357 6.63269 12.7357H7.74379C8.35743 12.7357 8.85489 12.1813 8.85489 11.4975V6.54473C8.85489 5.8609 8.35743 5.30654 7.74379 5.30654ZM2.2222 7.85369H1.1111C0.497456 7.85369 0 8.40013 0 9.0742V11.5152C0 12.1893 0.497456 12.7357 1.1111 12.7357H2.2222C2.83584 12.7357 3.3333 12.1893 3.3333 11.5152V9.0742C3.3333 8.40013 2.83584 7.85369 2.2222 7.85369Z" fill="black"/>
</svg>
