<svg width="7" height="12" viewBox="0 0 7 12" fill="none" xmlns="http://www.w3.org/2000/svg">
<path d="M0 8H1.33333C1.33333 8.72 2.24667 9.33333 3.33333 9.33333C4.42 9.33333 5.33333 8.72 5.33333 8C5.33333 7.26667 4.64 7 3.17333 6.64667C1.76 6.29333 0 5.85333 0 4C0 2.80667 0.98 1.79333 2.33333 1.45333V0H4.33333V1.45333C5.68667 1.79333 6.66667 2.80667 6.66667 4H5.33333C5.33333 3.28 4.42 2.66667 3.33333 2.66667C2.24667 2.66667 1.33333 3.28 1.33333 4C1.33333 4.73333 2.02667 5 3.49333 5.35333C4.90667 5.70667 6.66667 6.14667 6.66667 8C6.66667 9.19333 5.68667 10.2067 4.33333 10.5467V12H2.33333V10.5467C0.98 10.2067 0 9.19333 0 8Z" fill="black"/>
</svg>
