<svg width="17" height="17" viewBox="0 0 17 17" fill="none" xmlns="http://www.w3.org/2000/svg">
<path d="M15.7724 17C13.992 17 12.1665 16.5542 10.2959 15.6626C8.42535 14.7709 6.68436 13.5191 5.07296 11.907C3.47423 10.2956 2.22906 8.55775 1.33743 6.69351C0.445812 4.82928 0 3.00729 0 1.22757C0 0.910639 0.105643 0.643011 0.316928 0.424683C0.528213 0.206355 0.79232 0.0971912 1.10925 0.0971912H3.72179C4.00914 0.0971912 4.25986 0.187692 4.47396 0.368693C4.68807 0.549694 4.8328 0.781755 4.90815 1.06488L5.43214 3.5834C5.48144 3.8792 5.47264 4.13732 5.40573 4.35776C5.33882 4.5782 5.22156 4.75885 5.05394 4.8997L2.73614 7.06115C3.16998 7.84784 3.64925 8.57888 4.17394 9.25429C4.69863 9.9297 5.25854 10.5695 5.85366 11.1738C6.46638 11.7865 7.1263 12.357 7.8334 12.8852C8.5405 13.4127 9.31662 13.9107 10.1618 14.379L12.4215 12.0792C12.5933 11.8939 12.7866 11.7718 13.0014 11.7126C13.2155 11.6541 13.4529 11.6425 13.7135 11.6777L15.9351 12.132C16.2225 12.2024 16.4556 12.3472 16.6345 12.5662C16.8134 12.7852 16.9028 13.0359 16.9028 13.3184V15.8908C16.9028 16.2077 16.7937 16.4718 16.5753 16.6831C16.357 16.8944 16.0894 17 15.7724 17ZM9.42649 7.57352V2.29139H10.4829V5.76914L16.2531 0L17 0.74795L11.2309 6.51709H14.7086V7.57352H9.42649Z" fill="black"/>
</svg>
