<svg width="21" height="19" viewBox="0 0 21 19" fill="none" xmlns="http://www.w3.org/2000/svg">
<path d="M14.2192 18.2818L19.2975 13.2035L14.2192 8.12525M10.1566 1.01566H7.1096C6.30933 1.01566 5.5169 1.17328 4.77755 1.47953C4.0382 1.78578 3.3664 2.23466 2.80053 2.80053C2.23466 3.3664 1.78578 4.0382 1.47953 4.77755C1.17328 5.5169 1.01566 6.30933 1.01566 7.1096C1.01566 7.90986 1.17328 8.7023 1.47953 9.44165C1.78578 10.181 2.23466 10.8528 2.80053 11.4187C3.3664 11.9845 4.0382 12.4334 4.77755 12.7397C5.5169 13.0459 6.30933 13.2035 7.1096 13.2035L18.2818 13.2035" stroke="black" stroke-width="2"/>
</svg>
