<svg width="18" height="18" viewBox="0 0 18 18" fill="none" xmlns="http://www.w3.org/2000/svg">
<path d="M17 15.75V7.25C17 7.09475 16.9639 6.94164 16.8944 6.80279C16.825 6.66393 16.7242 6.54315 16.6 6.45L9.6 1.2C9.4269 1.07018 9.21637 1 9 1C8.78363 1 8.5731 1.07018 8.4 1.2L1.4 6.45C1.2758 6.54315 1.175 6.66393 1.10557 6.80279C1.03614 6.94164 1 7.09475 1 7.25V15.75C1 16.0152 1.10536 16.2696 1.29289 16.4571C1.48043 16.6446 1.73478 16.75 2 16.75H6C6.26522 16.75 6.51957 16.6446 6.70711 16.4571C6.89464 16.2696 7 16.0152 7 15.75V12.75C7 12.4848 7.10536 12.2304 7.29289 12.0429C7.48043 11.8554 7.73478 11.75 8 11.75H10C10.2652 11.75 10.5196 11.8554 10.7071 12.0429C10.8946 12.2304 11 12.4848 11 12.75V15.75C11 16.0152 11.1054 16.2696 11.2929 16.4571C11.4804 16.6446 11.7348 16.75 12 16.75H16C16.2652 16.75 16.5196 16.6446 16.7071 16.4571C16.8946 16.2696 17 16.0152 17 15.75Z" stroke="black" stroke-width="2" stroke-linecap="round" stroke-linejoin="round"/>
</svg>
