<svg width="16" height="16" viewBox="0 0 16 16" fill="none" xmlns="http://www.w3.org/2000/svg">
<path d="M13.074 7.03198L8.96734 2.9243M0.753981 13.8761V11.6996C0.755991 11.3407 0.898745 10.9959 1.15108 10.7416L10.7337 1.15898C10.861 1.03065 11.0124 0.928789 11.1792 0.859278C11.3461 0.789768 11.5251 0.753981 11.7058 0.753981C11.8866 0.753981 12.0655 0.789768 12.2324 0.859278C12.3992 0.928789 12.5506 1.03065 12.6779 1.15898L14.8404 3.32139C14.9689 3.44854 15.071 3.59993 15.1407 3.7668C15.2103 3.93367 15.2462 4.1127 15.2462 4.29352C15.2462 4.47435 15.2103 4.65338 15.1407 4.82025C15.071 4.98712 14.9689 5.13851 14.8404 5.26566L5.25776 14.8482C5.00289 15.1012 4.65879 15.2438 4.2997 15.2453H2.12321C1.76007 15.2453 1.4118 15.1011 1.15502 14.8443C0.898238 14.5875 0.753981 14.2393 0.753981 13.8761Z" stroke="white" stroke-width="1.5" stroke-linecap="round" stroke-linejoin="round"/>
</svg>
