<svg width="12" height="15" viewBox="0 0 12 15" fill="none" xmlns="http://www.w3.org/2000/svg">
<path d="M8.53448 5.43103H9.82759C10.1705 5.43103 10.4994 5.56727 10.7419 5.80978C10.9845 6.05228 11.1207 6.38119 11.1207 6.72414V12.931C11.1207 13.274 10.9845 13.6029 10.7419 13.8454C10.4994 14.0879 10.1705 14.2241 9.82759 14.2241H2.06897C1.72601 14.2241 1.39711 14.0879 1.1546 13.8454C0.912099 13.6029 0.775862 13.274 0.775862 12.931V6.72414C0.775862 6.38119 0.912099 6.05228 1.1546 5.80978C1.39711 5.56727 1.72601 5.43103 2.06897 5.43103H3.36207M8.53448 3.36207L5.94828 0.775862M5.94828 0.775862L3.36207 3.36207M5.94828 0.775862V9.60129" stroke="#BABABA" stroke-width="1.5" stroke-linecap="round" stroke-linejoin="round"/>
</svg>
