<svg width="18" height="18" viewBox="0 0 18 18" fill="none" xmlns="http://www.w3.org/2000/svg">
<path d="M17.2413 10.3736V14.8532C17.241 15.487 16.9891 16.0948 16.541 16.543C16.0928 16.9911 15.485 17.243 14.8512 17.2433H3.14683C2.8318 17.2432 2.51991 17.1808 2.22906 17.0598C1.93822 16.9387 1.67416 16.7614 1.45206 16.538C1.22995 16.3146 1.05419 16.0495 0.934863 15.7579C0.815535 15.4664 0.754996 15.1541 0.756724 14.8391V3.14784C0.75485 2.83331 0.815418 2.52154 0.934919 2.23059C1.05442 1.93964 1.23048 1.6753 1.45289 1.45289C1.6753 1.23048 1.93964 1.05442 2.23059 0.934919C2.52154 0.815418 2.83331 0.75485 3.14784 0.756724H7.62639" stroke="white" stroke-width="1.5" stroke-linecap="round" stroke-linejoin="round"/>
</svg>
