<svg width="12" height="12" viewBox="0 0 12 12" fill="none" xmlns="http://www.w3.org/2000/svg">
<path d="M1.5 0C1.10218 0 0.720644 0.158035 0.43934 0.43934C0.158035 0.720645 0 1.10218 0 1.5V2.693C0 3.213 0.27 3.695 0.711 3.968L4.577 6.358C3.98897 6.67483 3.5235 7.17885 3.25434 7.79017C2.98519 8.4015 2.92775 9.08516 3.09113 9.73283C3.2545 10.3805 3.62936 10.9551 4.15628 11.3656C4.6832 11.7761 5.33205 11.999 6 11.999C6.66795 11.999 7.3168 11.7761 7.84372 11.3656C8.37064 10.9551 8.7455 10.3805 8.90888 9.73283C9.07225 9.08516 9.01482 8.4015 8.74566 7.79017C8.4765 7.17885 8.01103 6.67483 7.423 6.358L11.289 3.968C11.5063 3.83362 11.6856 3.64596 11.8101 3.42283C11.9345 3.1997 11.9999 2.94848 12 2.693V1.5C12 1.10218 11.842 0.720645 11.5607 0.43934C11.2794 0.158035 10.8978 0 10.5 0H1.5ZM1 1.5C1 1.36739 1.05268 1.24022 1.14645 1.14645C1.24021 1.05268 1.36739 1 1.5 1H3V4.208L1.237 3.118C1.16457 3.07321 1.10479 3.01065 1.06331 2.93628C1.02183 2.8619 1.00004 2.77816 1 2.693V1.5ZM4 4.826V1H8V4.826L6.263 5.9C6.18398 5.94887 6.09291 5.97476 6 5.97476C5.90709 5.97476 5.81602 5.94887 5.737 5.9L4 4.826ZM9 4.208V1H10.5C10.6326 1 10.7598 1.05268 10.8536 1.14645C10.9473 1.24022 11 1.36739 11 1.5V2.693C11 2.77816 10.9782 2.8619 10.9367 2.93628C10.8952 3.01065 10.8354 3.07321 10.763 3.118L9 4.208ZM4 9C4 8.46957 4.21071 7.96086 4.58579 7.58579C4.96086 7.21071 5.46957 7 6 7C6.53043 7 7.03914 7.21071 7.41421 7.58579C7.78929 7.96086 8 8.46957 8 9C8 9.53043 7.78929 10.0391 7.41421 10.4142C7.03914 10.7893 6.53043 11 6 11C5.46957 11 4.96086 10.7893 4.58579 10.4142C4.21071 10.0391 4 9.53043 4 9Z" fill="#292929"/>
</svg>
