<svg width="14" height="10" viewBox="0 0 14 10" fill="none" xmlns="http://www.w3.org/2000/svg">
<path d="M9.62488 6.64992C9.48564 6.64992 9.35211 6.70523 9.25366 6.80369C9.1552 6.90214 9.09989 7.03567 9.09989 7.17491C9.09989 7.31415 9.1552 7.44768 9.25366 7.54614C9.35211 7.64459 9.48564 7.69991 9.62488 7.69991H11.3749C11.5141 7.69991 11.6476 7.64459 11.7461 7.54614C11.8445 7.44768 11.8999 7.31415 11.8999 7.17491C11.8999 7.03567 11.8445 6.90214 11.7461 6.80369C11.6476 6.70523 11.5141 6.64992 11.3749 6.64992H9.62488ZM0 2.27497C0 1.67161 0.239684 1.09296 0.666324 0.666324C1.09296 0.239684 1.67161 0 2.27497 0H11.7249C12.0236 0 12.3194 0.058844 12.5955 0.173172C12.8715 0.2875 13.1223 0.455073 13.3335 0.666324C13.5448 0.877575 13.7123 1.12837 13.8267 1.40438C13.941 1.68039 13.9998 1.97622 13.9998 2.27497V7.52491C13.9998 7.82366 13.941 8.11949 13.8267 8.3955C13.7123 8.67151 13.5448 8.92231 13.3335 9.13356C13.1223 9.34481 12.8715 9.51238 12.5955 9.62671C12.3194 9.74104 12.0236 9.79988 11.7249 9.79988H2.27497C1.67161 9.79988 1.09296 9.5602 0.666324 9.13356C0.239684 8.70692 0 8.12827 0 7.52491V2.27497ZM12.9498 3.14996V2.27497C12.9498 1.95009 12.8208 1.63851 12.5911 1.40878C12.3613 1.17905 12.0497 1.04999 11.7249 1.04999H2.27497C1.95009 1.04999 1.63851 1.17905 1.40878 1.40878C1.17905 1.63851 1.04999 1.95009 1.04999 2.27497V3.14996H12.9498ZM1.04999 4.19995V7.52491C1.04999 8.2011 1.59878 8.74989 2.27497 8.74989H11.7249C12.0497 8.74989 12.3613 8.62083 12.5911 8.3911C12.8208 8.16137 12.9498 7.84979 12.9498 7.52491V4.19995H1.04999Z" fill="#292929"/>
</svg>
