<svg width="20" height="20" viewBox="0 0 20 20" fill="none" xmlns="http://www.w3.org/2000/svg">
<path d="M9.94999 16C10.3 16 10.596 15.879 10.838 15.637C11.08 15.395 11.2007 15.0993 11.2 14.75C11.1993 14.4006 11.0787 14.1046 10.838 13.862C10.5973 13.6193 10.3013 13.4987 9.94999 13.5C9.59865 13.5013 9.30299 13.6223 9.06299 13.863C8.82299 14.1036 8.70199 14.3993 8.69999 14.75C8.69799 15.1006 8.81899 15.3966 9.06299 15.638C9.30699 15.8793 9.60265 16 9.94999 16ZM9.04999 12.15H10.9C10.9 11.6 10.9627 11.1667 11.088 10.85C11.2133 10.5333 11.5673 10.1 12.15 9.54999C12.5833 9.11666 12.925 8.70399 13.175 8.31199C13.425 7.91999 13.55 7.44933 13.55 6.89999C13.55 5.96666 13.2083 5.25 12.525 4.75C11.8416 4.25 11.0333 4 10.1 4C9.14999 4 8.37932 4.25 7.78799 4.75C7.19666 5.25 6.78399 5.85 6.54999 6.55L8.19999 7.19999C8.28332 6.89999 8.47099 6.575 8.76299 6.225C9.05499 5.875 9.50065 5.7 10.1 5.7C10.6333 5.7 11.0333 5.846 11.3 6.138C11.5666 6.42999 11.7 6.75066 11.7 7.09999C11.7 7.43333 11.6 7.74599 11.4 8.03799C11.2 8.32999 10.95 8.60066 10.65 8.84999C9.91665 9.49999 9.46665 9.99166 9.29999 10.325C9.13332 10.6583 9.04999 11.2667 9.04999 12.15ZM9.99999 20C8.61665 20 7.31666 19.7376 6.09999 19.213C4.88333 18.6883 3.825 17.9756 2.925 17.075C2.025 16.1743 1.31267 15.116 0.788 13.9C0.263334 12.684 0.000667931 11.384 1.26582e-06 9.99999C-0.0006654 8.61599 0.262001 7.31599 0.788 6.1C1.314 4.884 2.02633 3.82567 2.925 2.925C3.82366 2.02434 4.88199 1.312 6.09999 0.788004C7.31799 0.264005 8.61799 0.00133838 9.99999 5.05049e-06C11.382 -0.00132828 12.682 0.261338 13.9 0.788004C15.118 1.31467 16.1763 2.027 17.075 2.925C17.9736 3.823 18.6863 4.88133 19.213 6.1C19.7396 7.31866 20.002 8.61866 20 9.99999C19.998 11.3813 19.7353 12.6813 19.212 13.9C18.6886 15.1186 17.9763 16.177 17.075 17.075C16.1736 17.973 15.1153 18.6856 13.9 19.213C12.6846 19.7403 11.3847 20.0026 9.99999 20ZM9.99999 18C12.2333 18 14.125 17.225 15.675 15.675C17.225 14.125 18 12.2333 18 9.99999C18 7.76666 17.225 5.875 15.675 4.325C14.125 2.775 12.2333 2 9.99999 2C7.76666 2 5.87499 2.775 4.32499 4.325C2.775 5.875 2 7.76666 2 9.99999C2 12.2333 2.775 14.125 4.32499 15.675C5.87499 17.225 7.76666 18 9.99999 18Z" fill="#AFABAB"/>
</svg>
