<svg width="24" height="20" viewBox="0 0 24 20" fill="none" xmlns="http://www.w3.org/2000/svg">
<path d="M24 0V9C23.9062 8.82031 23.8047 8.62891 23.6953 8.42578C23.5859 8.22266 23.4648 8.02344 23.332 7.82812C23.1992 7.63281 23.0625 7.4375 22.9219 7.24219C22.7812 7.04688 22.6406 6.88281 22.5 6.75V3L12 8.25L1.5 3V13.5H12.75L13.5 15H0V0H24ZM22.3242 1.5H1.67578L12 6.66797L22.3242 1.5ZM21.1875 14.0977C21.6172 14.3242 22.0039 14.6016 22.3477 14.9297C22.6914 15.2578 22.9883 15.625 23.2383 16.0312C23.4883 16.4375 23.6758 16.8672 23.8008 17.3203C23.9258 17.7734 23.9922 18.25 24 18.75V19.5H22.5V18.75C22.5 18.2344 22.4023 17.75 22.207 17.2969C22.0117 16.8438 21.7422 16.4492 21.3984 16.1133C21.0547 15.7773 20.6562 15.5078 20.2031 15.3047C19.75 15.1016 19.2656 15 18.75 15C18.2344 15 17.75 15.0977 17.2969 15.293C16.8438 15.4883 16.4453 15.7578 16.1016 16.1016C15.7578 16.4453 15.4883 16.8438 15.293 17.2969C15.0977 17.75 15 18.2344 15 18.75V19.5H13.5V18.75C13.5 18.2578 13.5625 17.7852 13.6875 17.332C13.8125 16.8789 14 16.4492 14.25 16.043C14.5 15.6367 14.7969 15.2695 15.1406 14.9414C15.4844 14.6133 15.875 14.332 16.3125 14.0977C15.8906 13.7383 15.5664 13.3125 15.3398 12.8203C15.1133 12.3281 15 11.8047 15 11.25C15 10.7344 15.0977 10.25 15.293 9.79688C15.4883 9.34375 15.7539 8.94922 16.0898 8.61328C16.4258 8.27734 16.8242 8.00781 17.2852 7.80469C17.7461 7.60156 18.2344 7.5 18.75 7.5C19.2656 7.5 19.75 7.59766 20.2031 7.79297C20.6562 7.98828 21.0508 8.25781 21.3867 8.60156C21.7227 8.94531 21.9922 9.34375 22.1953 9.79688C22.3984 10.25 22.5 10.7344 22.5 11.25C22.5 11.7969 22.3867 12.3164 22.1602 12.8086C21.9336 13.3008 21.6094 13.7305 21.1875 14.0977ZM16.5 11.25C16.5 11.5625 16.5586 11.8555 16.6758 12.1289C16.793 12.4023 16.9531 12.6406 17.1562 12.8438C17.3594 13.0469 17.5977 13.207 17.8711 13.3242C18.1445 13.4414 18.4375 13.5 18.75 13.5C19.0625 13.5 19.3555 13.4414 19.6289 13.3242C19.9023 13.207 20.1406 13.0469 20.3438 12.8438C20.5469 12.6406 20.707 12.4023 20.8242 12.1289C20.9414 11.8555 21 11.5625 21 11.25C21 10.9375 20.9414 10.6445 20.8242 10.3711C20.707 10.0977 20.5469 9.85938 20.3438 9.65625C20.1406 9.45312 19.9023 9.29297 19.6289 9.17578C19.3555 9.05859 19.0625 9 18.75 9C18.4375 9 18.1445 9.05859 17.8711 9.17578C17.5977 9.29297 17.3594 9.45312 17.1562 9.65625C16.9531 9.85938 16.793 10.0977 16.6758 10.3711C16.5586 10.6445 16.5 10.9375 16.5 11.25Z" fill="#C2BEBE"/>
</svg>
