<svg width="18" height="13" viewBox="0 0 18 13" fill="none" xmlns="http://www.w3.org/2000/svg">
<path fill-rule="evenodd" clip-rule="evenodd" d="M9.0004 2.58975C11.612 2.58986 14.1238 3.5581 16.0165 5.29436C16.1591 5.4284 16.3869 5.42671 16.5272 5.29057L17.8897 3.96385C17.9608 3.8948 18.0004 3.80126 17.9998 3.70394C17.9992 3.60662 17.9585 3.51354 17.8865 3.44529C12.9187 -1.14843 5.08132 -1.14843 0.113465 3.44529C0.0415026 3.51349 0.000671794 3.60654 8.21567e-06 3.70386C-0.000655363 3.80118 0.038903 3.89475 0.10993 3.96385L1.47277 5.29057C1.61305 5.42692 1.84105 5.42861 1.98349 5.29436C3.87648 3.55799 6.38852 2.58974 9.0004 2.58975ZM8.99688 7.0213C10.4221 7.02121 11.7966 7.55857 12.853 8.52896C12.9959 8.66668 13.221 8.6637 13.3603 8.52223L14.7121 7.13688C14.7832 7.06421 14.8227 6.96563 14.8217 6.8632C14.8207 6.76077 14.7792 6.66302 14.7066 6.59184C11.4894 3.55627 6.50711 3.55627 3.28989 6.59184C3.21722 6.66302 3.17576 6.76081 3.17481 6.86328C3.17385 6.96575 3.21349 7.06432 3.28482 7.13688L4.63616 8.52223C4.77545 8.6637 5.00055 8.66668 5.14344 8.52896C6.19923 7.55921 7.57255 7.0219 8.99688 7.0213ZM11.6477 9.9547C11.6497 10.0653 11.6108 10.172 11.5401 10.2495L9.25448 12.8271C9.18748 12.9029 9.09613 12.9455 9.00082 12.9455C8.9055 12.9455 8.81416 12.9029 8.74716 12.8271L6.46114 10.2495C6.39052 10.1719 6.35167 10.0652 6.35377 9.95461C6.35586 9.84399 6.39871 9.73923 6.4722 9.66508C7.93189 8.28541 10.0697 8.28541 11.5294 9.66508C11.6029 9.73929 11.6457 9.84408 11.6477 9.9547Z" fill="black"/>
</svg>
