<svg width="23" height="22" viewBox="0 0 23 22" fill="none" xmlns="http://www.w3.org/2000/svg">
<path d="M1.01647 19.3862V2.61446C1.01647 2.19083 1.18476 1.78454 1.48431 1.48499C1.78387 1.18544 2.19015 1.01715 2.61378 1.01715H8.50786C8.87274 1.00652 9.23025 1.12119 9.52088 1.34206C9.81151 1.56294 10.0177 1.8767 10.1052 2.2311L10.6003 4.21177H20.1842C20.6078 4.21177 21.0141 4.38006 21.3137 4.67961C21.6132 4.97916 21.7815 5.38545 21.7815 5.80908V19.3862C21.7815 19.8099 21.6132 20.2161 21.3137 20.5157C21.0141 20.8152 20.6078 20.9835 20.1842 20.9835H2.61378C2.19015 20.9835 1.78387 20.8152 1.48431 20.5157C1.18476 20.2161 1.01647 19.8099 1.01647 19.3862Z" stroke="#292929" stroke-width="2" stroke-linecap="round" stroke-linejoin="round"/>
</svg>
