<svg width="20" height="22" viewBox="0 0 20 22" fill="none" xmlns="http://www.w3.org/2000/svg">
<path d="M19.5016 13.8772L17.448 11.8237V9.10331C17.4457 7.22335 16.7463 5.41104 15.4852 4.01682C14.2241 2.6226 12.4908 1.74551 10.6205 1.55515V0H9.10331V1.55515C7.23301 1.74551 5.49973 2.6226 4.23863 4.01682C2.97752 5.41104 2.27818 7.22335 2.27583 9.10331V11.8237L0.222272 13.8772C0.0799958 14.0195 4.29656e-05 14.2124 0 14.4136V16.6894C0 16.8906 0.0799246 17.0835 0.222191 17.2258C0.364458 17.3681 0.557413 17.448 0.758609 17.448H6.06887V18.0374C6.05203 18.9999 6.39113 19.9348 7.02113 20.6626C7.65112 21.3905 8.52766 21.8601 9.48261 21.9815C10.01 22.0338 10.5425 21.9751 11.0458 21.8092C11.5491 21.6434 12.0122 21.374 12.4052 21.0185C12.7982 20.663 13.1124 20.2291 13.3276 19.7448C13.5429 19.2605 13.6544 18.7366 13.655 18.2066V17.448H18.9652C19.1664 17.448 19.3594 17.3681 19.5016 17.2258C19.6439 17.0835 19.7238 16.8906 19.7238 16.6894V14.4136C19.7238 14.2124 19.6438 14.0195 19.5016 13.8772ZM12.1377 18.2066C12.1377 18.8102 11.898 19.3891 11.4712 19.8159C11.0444 20.2427 10.4655 20.4824 9.86192 20.4824C9.25833 20.4824 8.67946 20.2427 8.25266 19.8159C7.82586 19.3891 7.58609 18.8102 7.58609 18.2066V17.448H12.1377V18.2066ZM18.2066 15.9308H1.51722V14.7276L3.57077 12.6741C3.71305 12.5318 3.793 12.3389 3.79304 12.1377V9.10331C3.79304 7.49374 4.43244 5.9501 5.57058 4.81197C6.70871 3.67383 8.25235 3.03444 9.86192 3.03444C11.4715 3.03444 13.0151 3.67383 14.1533 4.81197C15.2914 5.9501 15.9308 7.49374 15.9308 9.10331V12.1377C15.9308 12.3389 16.0108 12.5318 16.1531 12.6741L18.2066 14.7276V15.9308Z" fill="white"/>
</svg>
