<svg width="20" height="20" viewBox="0 0 20 20" fill="none" xmlns="http://www.w3.org/2000/svg">
<path d="M10 14.5C11.25 14.5 12.3127 14.0627 13.188 13.188C14.0633 12.3133 14.5007 11.2507 14.5 10C14.4993 8.74933 14.062 7.687 13.188 6.813C12.314 5.939 11.2513 5.50133 10 5.5C8.74867 5.49867 7.68633 5.93633 6.813 6.813C5.93967 7.68967 5.502 8.752 5.5 10C5.498 11.248 5.93567 12.3107 6.813 13.188C7.69033 14.0653 8.75267 14.5027 10 14.5ZM10 11C9.71667 11 9.47933 10.904 9.288 10.712C9.09667 10.52 9.00067 10.2827 9 10C8.99933 9.71733 9.09533 9.48 9.288 9.288C9.48067 9.096 9.718 9 10 9C10.282 9 10.5197 9.096 10.713 9.288C10.9063 9.48 11.002 9.71733 11 10C10.998 10.2827 10.902 10.5203 10.712 10.713C10.522 10.9057 10.2847 11.0013 10 11ZM10 20C8.61667 20 7.31667 19.7373 6.1 19.212C4.88334 18.6867 3.825 17.9743 2.925 17.075C2.025 16.1757 1.31267 15.1173 0.788001 13.9C0.263335 12.6827 0.000667933 11.3827 1.26582e-06 10C-0.000665401 8.61733 0.262001 7.31733 0.788001 6.1C1.314 4.88267 2.02633 3.82433 2.925 2.925C3.82367 2.02567 4.882 1.31333 6.1 0.788C7.318 0.262667 8.618 0 10 0C11.382 0 12.682 0.262667 13.9 0.788C15.118 1.31333 16.1763 2.02567 17.075 2.925C17.9737 3.82433 18.6863 4.88267 19.213 6.1C19.7397 7.31733 20.002 8.61733 20 10C19.998 11.3827 19.7353 12.6827 19.212 13.9C18.6887 15.1173 17.9763 16.1757 17.075 17.075C16.1737 17.9743 15.1153 18.687 13.9 19.213C12.6847 19.739 11.3847 20.0013 10 20ZM10 18C12.2333 18 14.125 17.225 15.675 15.675C17.225 14.125 18 12.2333 18 10C18 7.76667 17.225 5.875 15.675 4.325C14.125 2.775 12.2333 2 10 2C7.76667 2 5.875 2.775 4.325 4.325C2.775 5.875 2 7.76667 2 10C2 12.2333 2.775 14.125 4.325 15.675C5.875 17.225 7.76667 18 10 18Z" fill="black"/>
</svg>
