<svg width="11" height="7" viewBox="0 0 11 7" fill="none" xmlns="http://www.w3.org/2000/svg">
<path d="M2.38635 5.50077C2.57204 5.50703 2.75709 5.47587 2.93049 5.40913C3.10388 5.34239 3.26208 5.24145 3.39565 5.1123C3.52922 4.98316 3.63544 4.82846 3.70799 4.65741C3.78053 4.48636 3.81792 4.30247 3.81792 4.11667C3.81792 3.93088 3.78053 3.74698 3.70799 3.57594C3.63544 3.40489 3.52922 3.25019 3.39565 3.12104C3.26208 2.9919 3.10388 2.89096 2.93049 2.82422C2.75709 2.75748 2.57204 2.72631 2.38635 2.73257C2.01906 2.73257 1.66681 2.87848 1.40709 3.1382C1.14737 3.39791 1.00147 3.75017 1.00147 4.11746C1.00147 4.48476 1.14737 4.83701 1.40709 5.09672C1.66681 5.35644 2.01906 5.50235 2.38635 5.50235V5.50077ZM8.61362 3.77124C8.98091 3.77124 9.33316 3.62533 9.59288 3.36562C9.85259 3.1059 9.9985 2.75365 9.9985 2.38635C9.9985 2.01906 9.85259 1.66681 9.59288 1.40709C9.33316 1.14738 8.98091 1.00147 8.61362 1.00147C8.24632 1.00147 7.89407 1.14738 7.63435 1.40709C7.37464 1.66681 7.22873 2.01906 7.22873 2.38635C7.22873 2.75365 7.37464 3.1059 7.63435 3.36562C7.89407 3.62533 8.24632 3.77124 8.61362 3.77124Z" stroke="#292929" stroke-width="2" stroke-linecap="round" stroke-linejoin="round"/>
</svg>
