<svg width="17" height="17" viewBox="0 0 17 17" fill="none" xmlns="http://www.w3.org/2000/svg">
<path d="M8.49998 1.21432C9.96488 1.21428 11.3958 1.65583 12.6059 2.48135C13.8161 3.30687 14.7493 4.47802 15.2837 5.84195C15.8182 7.20589 15.929 8.69925 15.6019 10.1272C15.2747 11.5551 14.5247 12.8512 13.4497 13.8464C12.3748 14.8415 11.0248 15.4896 9.57591 15.7059C8.12706 15.9221 6.64666 15.6967 5.32791 15.0588C4.00915 14.421 2.91331 13.4004 2.18338 12.1303C1.45345 10.8602 1.12334 9.39957 1.23614 7.93902C1.2422 7.85945 1.23253 7.77946 1.20767 7.70363C1.18282 7.62779 1.14328 7.5576 1.0913 7.49705C1.03931 7.4365 0.975916 7.38678 0.904721 7.35073C0.833525 7.31468 0.755927 7.29301 0.676355 7.28695C0.596784 7.28089 0.516798 7.29056 0.440965 7.31541C0.365131 7.34026 0.294935 7.37981 0.234385 7.43179C0.173835 7.48377 0.124116 7.54717 0.088067 7.61837C0.052018 7.68956 0.0303452 7.76716 0.0242856 7.84673C0.00809519 8.06368 0 8.28144 0 8.50002C5.77403e-06 10.4703 0.684453 12.3793 1.9363 13.9007C3.18815 15.4221 4.92965 16.4614 6.863 16.8408C8.79636 17.2203 10.8015 16.9163 12.5355 15.9809C14.2695 15.0455 15.6248 13.5368 16.3694 11.7127C17.1141 9.88858 17.202 7.86245 16.618 5.98074C16.0341 4.09903 14.8146 2.47861 13.1681 1.39658C11.5216 0.314546 9.55028 -0.161897 7.59133 0.0487209C5.63238 0.259338 3.80744 1.14393 2.42856 2.55125V0.60718C2.42856 0.446157 2.3646 0.291728 2.25074 0.177867C2.13688 0.0640059 1.98245 3.93262e-05 1.82142 3.93262e-05C1.6604 3.93262e-05 1.50597 0.0640059 1.39211 0.177867C1.27825 0.291728 1.21428 0.446157 1.21428 0.60718V4.25003C1.21428 4.41105 1.27825 4.56548 1.39211 4.67934C1.50597 4.7932 1.6604 4.85717 1.82142 4.85717H5.46427C5.62529 4.85717 5.77972 4.7932 5.89358 4.67934C6.00744 4.56548 6.07141 4.41105 6.07141 4.25003C6.07141 4.089 6.00744 3.93457 5.89358 3.82071C5.77972 3.70685 5.62529 3.64289 5.46427 3.64289H3.06971C3.75209 2.87766 4.58879 2.26561 5.52474 1.84703C6.4607 1.42844 7.47469 1.21281 8.49998 1.21432ZM8.49998 4.25003C8.49998 4.089 8.43601 3.93457 8.32215 3.82071C8.20829 3.70685 8.05386 3.64289 7.89283 3.64289C7.73181 3.64289 7.57738 3.70685 7.46352 3.82071C7.34966 3.93457 7.28569 4.089 7.28569 4.25003V9.10716C7.28569 9.26818 7.34966 9.42261 7.46352 9.53647C7.57738 9.65033 7.73181 9.7143 7.89283 9.7143H11.5357C11.6967 9.7143 11.8511 9.65033 11.965 9.53647C12.0789 9.42261 12.1428 9.26818 12.1428 9.10716C12.1428 8.94613 12.0789 8.7917 11.965 8.67784C11.8511 8.56398 11.6967 8.50002 11.5357 8.50002H8.49998V4.25003Z" fill="#DADADA"/>
</svg>
