<svg width="18" height="16" viewBox="0 0 18 16" fill="none" xmlns="http://www.w3.org/2000/svg">
<path d="M17.0002 10.0006C17.2551 10.0009 17.5003 10.0985 17.6856 10.2735C17.871 10.4485 17.9825 10.6876 17.9974 10.9421C18.0124 11.1966 17.9296 11.4471 17.766 11.6426C17.6024 11.8381 17.3703 11.9637 17.1172 11.9938L17.0002 12.0008H3.41315L5.70633 14.294C5.88569 14.4739 5.98983 14.7154 5.99758 14.9694C6.00534 15.2234 5.91613 15.4708 5.74809 15.6613C5.58004 15.8519 5.34575 15.9714 5.09281 15.9955C4.83987 16.0196 4.58724 15.9465 4.38623 15.7911L4.29222 15.7081L0.461928 11.8778C-0.203123 11.2137 0.222909 10.0946 1.12498 10.0066L1.23999 10.0006H17.0002ZM12.2928 0.292884C12.465 0.120694 12.6942 0.0172547 12.9372 0.00197236C13.1802 -0.01331 13.4205 0.0606147 13.6129 0.209877L13.7069 0.292884L17.5372 4.12318C18.2023 4.78723 17.7763 5.90632 16.8742 5.99432L16.7592 6.00032H0.998969C0.74407 6.00004 0.498898 5.90244 0.313548 5.72745C0.128198 5.55247 0.0166584 5.31332 0.00172017 5.05885C-0.0132181 4.80439 0.0695721 4.55383 0.233175 4.35836C0.396778 4.1629 0.628844 4.03727 0.88196 4.00717L0.998969 4.00017H14.586L12.2928 1.70699C12.1053 1.51945 12 1.26512 12 0.999938C12 0.734754 12.1053 0.480426 12.2928 0.292884Z" fill="#292929" fill-opacity="0.35"/>
</svg>
